<?xml version="1.0" standalone="no"?><!DOCTYPE svg PUBLIC "-//W3C//DTD SVG 1.1//EN"
        "http://www.w3.org/Graphics/SVG/1.1/DTD/svg11.dtd">
<svg class="icon" viewBox="0 0 1024 1024" version="1.1" xmlns="http://www.w3.org/2000/svg"
     id="mx_n_1718596531176"
     width="16" height="16">
    <path d="M452.382 657.118a927.631 927.631 0 0 0-5.127 0.015z m13.743-0.176l-2.924 0.053a726.7 726.7 0 0 0 3.923-0.074l-3.923 0.074 2.924-0.053z m4.717-0.106l-1.543 0.035 2.387-0.06-2.387 0.06 1.543-0.035z m4.718-0.134l-1.363 0.039 2.726-0.082-2.726 0.082 1.363-0.04z m4.714-0.156l-1.279 0.043c0.954-0.032 1.907-0.064 2.86-0.103l-2.86 0.106 1.279-0.046z m4.717-0.18l-0.918 0.036 2.295-0.092-2.295 0.092 0.918-0.036z m4.718-0.204l-0.318 0.014 1.363-0.064-1.36 0.064 0.318-0.014z m4.717-0.23l-0.519 0.028 3.778-0.197-3.778 0.197 0.519-0.028z m4.718-0.247l-0.474 0.025 4.322-0.251-4.322 0.247 0.474-0.025z m4.717-0.28l-0.173 0.011c1.162-0.07 2.32-0.14 3.478-0.218l-3.478 0.218 0.173-0.01z m14.149-0.97l-1.932 0.145a935.784 935.784 0 0 0 1.932-0.145z m9.435-0.77l-2.889 0.247 4.188-0.36-4.188 0.36 2.889-0.247z m4.717-0.42l-2.21 0.201a939.658 939.658 0 0 0 2.21-0.201z m9.432-0.911l-0.954 0.099 1.999-0.205-2.002 0.205 0.957-0.1z m4.717-0.49l-0.621 0.066 2.976-0.321-2.976 0.318c0.208-0.018 0.416-0.043 0.621-0.064z m4.718-0.516l-0.972 0.105 3.4-0.38-3.4 0.384 0.972-0.11z m4.717-0.54l-0.339 0.038 1.363-0.159-1.363 0.16 0.339-0.04z m9.435-1.152l-0.6 0.074a950.745 950.745 0 0 0 0.6-0.074z m9.431-1.246l-3.563 0.48a953.909 953.909 0 0 0 3.567-0.48z m9.435-1.346l-1.504 0.22 2.327-0.343-2.327 0.346 1.504-0.223z m4.718-0.706l-2.313 0.35c1.366-0.205 2.73-0.413 4.096-0.625l-4.096 0.625 2.313-0.353z m4.717-0.734l-2.284 0.356 3.368-0.53-3.368 0.53 2.284-0.353z m4.718-0.756l-1.035 0.17 3.206-0.527-3.206 0.527 1.035-0.17z m4.717-0.777l-1.667 0.276c1.293-0.212 2.589-0.431 3.881-0.654l-3.884 0.654 1.67-0.276z m4.714-0.805l-0.79 0.134a971.176 971.176 0 0 0 0.79-0.134z m9.435-1.68l-0.565 0.105 3.114-0.575-3.114 0.572 0.565-0.103z m9.435-1.777l-4.018 0.77a981.448 981.448 0 0 0 4.018-0.77z m14.149-2.842l-1.907 0.395 2.274-0.473-2.274 0.473 1.907-0.395z m4.717-0.996l-1.504 0.318 2.585-0.551-2.585 0.554 1.504-0.317z m4.718-1.017l-2.341 0.505c1.444-0.31 2.888-0.628 4.332-0.946l-4.332 0.95 2.34-0.509z m4.717-1.045l-2.345 0.519a1003.114 1003.114 0 0 0 2.345-0.519z m18.866-4.414l-0.822 0.198 4.3-1.06-4.3 1.06 0.822-0.198z m4.718-1.165l-0.374 0.092a1026.578 1026.578 0 0 0 0.374-0.092z m33.019-8.817l-2.063 0.583 3.867-1.102-3.867 1.105 2.063-0.586z m53.572-16.811zM447.255 415.514c124.215 0 248.426-24.957 372.64-74.868v173.557l-4.717 1.882c-4.244 1.685-8.488 3.34-12.733 4.962-16.6-77.454-34.48-119.279-53.636-125.48l-47.122 21.97 1.112 0.933c24.319 20.738 42.059 60.469 53.213 119.2-102.915 34.27-205.834 51.402-308.754 51.402-186.322 0-323.421-34.128-372.64-74.869-15.184-12.567-23.587-23.128-27.952-33.491l0.053-0.72a259.92 259.92 0 0 0 0.671-18.539c0-19.41-1.43-38.379-0.713-55.769a246.545 246.545 0 0 0-0.198 9.357c0.49-6.002 0.844-12.457 0.904-19.473l-0.081 0.762-0.19 2.161c2.729-33.386 15.751-60.027 66.513-71.263 80.102-17.726 147.315 88.286 333.63 88.286z m368.93 168.237l3.71-1.483a1157.402 1157.402 0 0 1-3.71 1.483z m-746.193-5.438a179.881 179.881 0 0 0 0.385 0.339z m-7.291-6.875l0.399 0.402a123.593 123.593 0 0 1-0.4-0.406z m-6.353-7.034a88.986 88.986 0 0 0 0.611 0.742z m-3.637-4.799a72.87 72.87 0 0 0 0.177 0.248z m-3.33-5.296l0.272 0.477-0.271-0.48z m-0.519-0.943l0.248 0.456a57.62 57.62 0 0 1-0.248-0.46z m-0.473-0.904l0.205 0.392c-0.07-0.13-0.141-0.261-0.205-0.392z m-3.072-7.253a51.112 51.112 0 0 0 0.127 0.378z m-0.342-1.059a50.487 50.487 0 0 0 0.134 0.43z m-0.318-1.06a50.582 50.582 0 0 0 0.141 0.481z m-0.155-0.55l0.077 0.275a50.72 50.72 0 0 1-0.077-0.275z m-1.159-5.258l0.06 0.353a54.908 54.908 0 0 1-0.06-0.353z m-0.72-6.437a62.355 62.355 0 0 0 0.035 0.48z m-0.127-3.99a78.389 78.389 0 0 0 0 0.258z m0.618-12.337l-0.035 0.381c-0.142 1.55-0.262 3.072-0.353 4.566l-0.04 0.632c0.107-1.822 0.251-3.68 0.428-5.58z m2.2-19.552c-0.526 4.7-1.074 9.11-1.547 13.302 0.434-3.86 0.936-7.91 1.423-12.207z m0.402-3.718a484.303 484.303 0 0 1-0.067 0.646z m0.58-5.978a353.668 353.668 0 0 1-0.071 0.823z m0.737-85.79l-0.197 2.945a189.99 189.99 0 0 0 0.197-2.945z m-4.477 123.31l0.014-0.313c-0.046 1.158-0.07 2.302-0.078 3.432v0.134c0-1.074 0.025-2.158 0.064-3.252z"
          fill="#FFFFFF" class=""></path>
    <path d="M748.809 395.568c19.156 6.2 37.037 48.025 53.636 125.479 4.245-1.621 8.489-3.277 12.733-4.962l4.718-1.882v68.061a881.155 881.155 0 0 1-5.47 2.182l0.021 0.12-49.325 19.693-0.145-1.557c-105.906 36.288-211.816 54.43-317.722 54.43-186.319 0-323.418-34.127-372.637-74.868-43.58-36.07-31.331-55.62-27.952-101.552 4.365 10.367 12.768 20.924 27.952 33.491 49.222 40.741 186.318 74.869 372.637 74.869 102.923 0 205.842-17.133 308.76-51.401-11.327-59.622-29.434-99.664-54.328-120.133z m-701.507 0.762l0.081-0.762a266.604 266.604 0 0 1-0.904 19.473c0.025-6.433 0.244-12.687 0.823-18.714l0.081-0.76z"
          fill="#F9E5E5"></path>
    <path d="M447.255 408.452c123.293 0 246.614-24.777 370.006-74.36l9.697-3.894v256.84l-4.428 1.78c-125.034 50.243-250.139 75.377-375.275 75.377-176.576 0-322.401-31.18-377.14-76.49-17.072-14.13-26.814-26.585-31.383-39.921l-0.526-1.572c-3.595-11.063-3.68-18.29-1.155-41.105l1.158-10.162 0.54-4.996c1.081-10.477 1.582-18.87 1.582-28.496l-0.014-3.277a454.236 454.236 0 0 0-0.099-6.84L39.71 432.8l-0.166-7.525c-0.494-28.223 0.904-42.054 6.727-56.754l0.738-1.811c9.805-23.457 30.345-38.686 65.09-46.374a92.379 92.379 0 0 1 25.124-2.023c16.338 0.88 32.934 5.653 53.859 14.756l2.828 1.247 2.642 1.207c13.806 6.392 47.28 22.906 57.29 27.694l4.767 2.232c62.072 28.679 117.294 43.004 188.646 43.004z m360.706-55.515c-120.183 46.416-240.428 69.64-360.706 69.64-73.626 0-130.79-14.834-194.602-44.322l-4.248-1.984c-10.074-4.792-48.75-23.891-60.219-29.047l-2.75-1.21c-19.502-8.479-34.604-12.826-48.976-13.599-7.26-0.392-14.3 0.159-21.31 1.71-30.518 6.754-47.21 19.127-55.112 38.032l-0.653 1.607c-5.364 13.643-6.367 27.436-5.55 58.84l0.38 13.33 0.166 7.207c0.029 1.723 0.05 3.337 0.06 4.944l0.004 5.547c-0.081 10.79-0.78 20.307-2.196 32.856l-1.257 11.063-0.58 5.53c-1.574 15.89-1.19 21.503 1.462 29.473l0.572 1.642c3.779 10.219 11.918 20.416 26.674 32.627 51.542 42.662 194.578 73.248 368.135 73.248 121.82 0 243.666-24.188 365.579-72.588V351.045l-4.873 1.892z"
          fill="#4C3030"></path>
    <path d="M751.129 395.878c28.975 9.993 57.058 112.651 84.247 307.984 40.155-252.497-46.984-398.696-126.888-405.829-79.904-7.132-123.357 42.104-254.626 51.797-87.517 6.458-187.64 3.503-300.368-8.863 38.425-121.926 94.632-198.387 168.61-229.393 110.974-46.504 217.17-47.676 319.647-31.497C744.23 96.252 971.744 279.414 887.797 708.195c-20.547 15.445-38.022 15.445-52.421 0-27.472-200.174-55.85-304.375-85.144-312.596z"
          fill="#C40000"></path>
    <path d="M153.494 340.964c112.728 12.369 212.85 15.324 300.368 8.863 131.27-9.69 174.722-58.926 254.622-51.794 79.908 7.133 167.047 153.332 126.892 405.83-28.033-201.376-57.012-304.256-86.938-308.648-40.97 27.57-104.413 41.355-190.337 41.355-128.876 0-241.65-25.423-303.121-47.062-40.978-14.424-74.805-30.603-101.486-48.544z"
          fill="#9E0000" class=""></path>
    <path d="M642.853 73.1c64.124 10.123 144.444 71.118 197.932 162.748 68.668 117.644 91.736 275.139 55.074 467.852l-1.653 8.51-2.164 1.627c-22.874 17.197-44.082 17.472-61.017 0.029l-0.812-0.858-1.529-1.635-1.913-13.814c-13.1-93.537-26.391-165.192-39.852-214.88l-1.105-4.037-0.572-2.04-1.14-3.998c-12.186-42.072-24.428-65.42-34.435-69.741-15.477 9.968-33.806 18.086-54.978 24.378a7.062 7.062 0 0 1-4.022-13.538c20.194-6.003 37.482-13.697 51.881-23.058l1.946-1.288 2.267-1.526 2.701 0.4c34.071 4.996 62.16 102.198 90.024 298.336l0.847 5.975 1.72 12.38c10.67 10.331 22.793 10.497 38.347-0.106l0.996-0.696 1.087-5.713c35.332-188.257 12.677-341.388-53.898-455.437C777.121 154.8 700.307 96.468 640.65 87.05 524.51 68.718 424.3 76.406 324.834 118.089c-25.678 10.763-49.18 27.225-70.525 49.435a7.062 7.062 0 1 1-10.184-9.785c22.652-23.573 47.747-41.15 75.25-52.676C421.482 62.27 524.295 54.385 642.853 73.1z m-439.43 151.128a7.062 7.062 0 0 1 2.694 9.615l-1.183 2.14c-9.788 17.937-22.228 46.959-37.252 86.965l-2.79 7.472-2.85 7.719c25.41 16.38 57.175 31.295 95.286 44.71 21.733 7.652 48.18 15.166 77.241 21.765 69.074 15.678 146.167 24.894 223.532 24.894 2.79 0 5.558-0.014 8.298-0.042a7.062 7.062 0 0 1 0.152 14.124c-2.79 0.028-5.607 0.042-8.45 0.042-78.452 0-156.59-9.336-226.657-25.247-29.576-6.712-56.539-14.375-78.81-22.214-40.32-14.194-73.893-30.109-100.732-47.781l-2.349-1.565-4.586-3.082 3.845-10.544 2.885-7.818c17.125-46.154 31.133-78.925 42.107-98.456a7.062 7.062 0 0 1 9.619-2.697z m8.56-22.927a7.062 7.062 0 1 1 0 14.124 7.062 7.062 0 0 1 0-14.124z"
          fill="#4C3030"></path>
    <path d="M850.52 694.569c62.69 0 114.96 44.604 126.807 103.805-11.864 59.19-64.124 103.784-126.803 103.784-62.683 0-114.95-44.6-126.8-103.798l-0.498 2.63c10.689-59.819 62.507-105.39 125.158-106.404z m129.296 126.764c0.018 0.847 0.025 1.698 0.025 2.553z m-0.074-2.603l0.053 1.642z m-0.385-6.108a130.465 130.465 0 0 1 0.198 2.599z m-0.25-2.606c0.074 0.702 0.14 1.405 0.208 2.111z m-256.788-3.185a129.631 129.631 0 0 0-0.025 0.194z m255.986-2.931a129.317 129.317 0 0 1 0 0.007z m-255.64 0.494l-0.268 1.861c0.084-0.621 0.176-1.243 0.268-1.86z m255.177-3.273a128.929 128.929 0 0 1-0.519-2.754z m-254.64 0l-0.389 2.316c0.124-0.776 0.255-1.543 0.389-2.312z m254.174-2.5l0.04 0.212-0.04-0.212zM721.224 821.75a130.818 130.818 0 0 1-0.017 2.137z"
          fill="#FFFFFF"></path>
    <path d="M850.52 902.158c62.687 0 114.953-44.597 126.8-103.795a129.612 129.612 0 0 1 2.52 25.523c0 71.418-57.897 129.317-129.316 129.317-71.422 0-129.317-57.899-129.317-129.317 0-8.74 0.865-17.274 2.517-25.53 11.85 59.202 64.117 103.802 126.8 103.802z"
          fill="#F9E5E5"></path>
    <path d="M850.52 687.507c75.324 0 136.383 61.058 136.383 136.379 0 75.317-61.059 136.379-136.38 136.379-75.32 0-136.378-61.059-136.378-136.38a7.062 7.062 0 1 1 14.124 0c0 67.521 54.734 122.256 122.255 122.256s122.255-54.735 122.255-122.255S918.044 701.63 850.524 701.63c-50.515 0-95.268 30.917-113.632 77.061a7.062 7.062 0 1 1-13.125-5.222c20.49-51.476 70.409-85.963 126.757-85.963zM723.982 790.984a7.062 7.062 0 1 1 0 14.124 7.062 7.062 0 0 1 0-14.124z"
          fill="#4C3030"></path>
</svg>